<svg xmlns="http://www.w3.org/2000/svg" width="50" height="6.17" viewBox="0 0 50 6.17">
  <title>927</title>
  <g>
    <path d="M22,3.45,21.57,5.2l-.42,0c-.94,0-.83-.28-.44-1.8s.65-1.87,1.23-1.87.57.38.42.86h1.43C24,1.51,23.86.72,22.2.72c-1.85,0-2.36.39-2.95,2.7-.56,2.15-.38,2.72,1.63,2.72A9.21,9.21,0,0,0,22.8,6l.67-2.52Zm3.4,1.73c-.19,0-.26-.06-.22-.21l.32-1.26h1.91l.21-.83h-1.9L26,2a.51.51,0,0,1,.52-.4H28L28.23.8H26c-.92,0-1.2.16-1.55,1.54l-.66,2.53c-.2.85.05,1.22.74,1.22h1.91a.74.74,0,0,0,.74-.51l.15-.4Zm21.76,0C47,5.18,47,5.12,47,5l.32-1.26h1.9l.22-.83h-1.9L47.74,2a.51.51,0,0,1,.52-.4h1.53L50,.8H47.79c-.92,0-1.2.16-1.56,1.54l-.65,2.53c-.21.85.05,1.22.74,1.22h1.91A.74.74,0,0,0,49,5.58l.15-.4Zm-31.34,0h-.39l.92-3.55h.45c.83,0,.83.28.44,1.8s-.63,1.76-1.42,1.76M17.08.8h-1.9L13.85,5.93a.12.12,0,0,0,.11.16h1.7c2.13,0,2.49-.41,3.08-2.67.5-2,.19-2.62-1.66-2.62m26.65,0c-1.1,0-1.61,0-1.91,0L40.5,5.93a.11.11,0,0,0,.11.16h1.27L43,1.63h.47c.62,0,.7.22.54.85l-.9,3.46a.12.12,0,0,0,.12.16h1.27l.94-3.62C45.8,1.21,45.25.79,43.73.79m-11,0-.22.86H33.9s0,0,0,0a1.28,1.28,0,0,0-.43.67l-.93,3.58a.12.12,0,0,0,.12.16H34l1.14-4.43h.7a.74.74,0,0,0,.77-.51L36.77.8ZM12.89,6.09,14.22,1A.12.12,0,0,0,14.1.8H12.76L11.43,5.93a.12.12,0,0,0,.11.16Zm24.89-.82c-.61,0-.7-.22-.27-1.87.35-1.37.69-1.85,1.24-1.85s.67.33.28,1.85-.77,1.87-1.25,1.87M39,.72c-1.6,0-2.3.29-2.93,2.72-.54,2.11-.1,2.72,1.52,2.72s2.32-.34,2.93-2.72C40.93,1.72,40.83.72,39,.72"/>
    <path d="M.83,3.48,1.66.58A.83.83,0,0,1,2.41,0H4.94A0,0,0,0,1,5,.08,29,29,0,0,0,.9,3.52a0,0,0,0,1-.07,0" style="fill: red"/>
    <path d="M2.83,5.23l.82-2.87s0-.08-.06,0A31,31,0,0,0,0,6s0,.08,0,.08H3.59c1.5,0,2.32-.47,2.61-1.57a1.25,1.25,0,0,0-1-1.68s0,0,0,0a1.65,1.65,0,0,0,1.51-1.3C7,.5,6.21,0,5.32,0L4,4.75a.67.67,0,0,1-.6.48ZM10.55,4a1,1,0,0,0-.18-.37s0,0,0,0a1.64,1.64,0,0,0,1.18-1.23C11.78,1.48,11.23.8,9.86.8h-2L6.5,5.93a.12.12,0,0,0,.11.16H7.89L9,1.63h.53c.5,0,.68.31.57.71a1.06,1.06,0,0,1-1.05.84H8.9l.53,2.57a.42.42,0,0,0,.48.35H11Zm17.32.33c-.54,1.28.17,1.87,1.6,1.87s2-.31,2.34-1.51a1.23,1.23,0,0,0-.22-1.13c-.48-.53-1.42-.63-1.75-.94A.54.54,0,0,1,29.72,2a.66.66,0,0,1,.7-.54c.59,0,.6.36.46.8h1.26c.3-.91-.09-1.61-1.58-1.61-1.26,0-1.93.49-2.18,1.44a1.42,1.42,0,0,0,.12.94c.34.59,1.25.67,1.76,1a.48.48,0,0,1,.17.58.73.73,0,0,1-.78.65c-.42,0-.68-.24-.43-1Z"/>
  </g>
</svg>
