<svg xmlns="http://www.w3.org/2000/svg" width="49.52" height="26.96" viewBox="0 0 49.52 26.96">
  <title>925</title>
  <g>
    <path d="M19.19,16.31a.82.82,0,0,1,.61.27.75.75,0,0,1,.2.65.83.83,0,0,1-.74.7.81.81,0,0,1-.63-.22.8.8,0,0,1,.07-1.24.8.8,0,0,1,.49-.16Zm0,1.47a.66.66,0,0,0,.67-.59.62.62,0,0,0-.23-.57.67.67,0,0,0-.89,0,.62.62,0,0,0-.21.59.67.67,0,0,0,.66.56Zm.42-.23h-.2l-.23-.34h-.1v.34H18.9v-.87a2.14,2.14,0,0,1,.36,0,.25.25,0,0,1,.24.25.24.24,0,0,1-.17.23Zm-.53-.48c.08,0,.19,0,.24-.06a.13.13,0,0,0-.11-.19h-.13Z"/>
    <path d="M16.59,0,35.38,10.79,16.76,21.3l5.63-5a5.75,5.75,0,0,1-6.14-5.54,5.81,5.81,0,0,1,6.1-5.64Z" style="fill: red;stroke: red;stroke-width: 0.06598683676838px;fill-rule: evenodd"/>
    <path d="M28.46,10.73a5.35,5.35,0,0,1-10.69,0,5.35,5.35,0,0,1,10.69,0Z" style="fill: #fff;fill-rule: evenodd"/>
    <path d="M20.63,8.51l-.57,1.15h.75l-.92,2h-.71l-.53,1.19H25.1a2.79,2.79,0,0,0,2.63-2.75,1.4,1.4,0,0,0-1.44-1.55Zm2.5,1.16H24.6a.6.6,0,0,1,.51.6A1.27,1.27,0,0,1,24,11.62H22.23Z" style="stroke: #000;stroke-width: 0.06598683676838px;fill-rule: evenodd"/>
    <path d="M45.44,26a.42.42,0,0,1,.34.15.47.47,0,0,1,.12.36.46.46,0,0,1-.78.27.43.43,0,0,1-.14-.35.43.43,0,0,1,.18-.34.47.47,0,0,1,.28-.09Zm0,.83a.4.4,0,0,0,.38-.34.37.37,0,0,0-.14-.32.39.39,0,0,0-.5,0,.4.4,0,0,0-.12.34.4.4,0,0,0,.38.32Zm.23-.13h-.11l-.13-.2h-.06v.2h-.09v-.5h.2a.13.13,0,0,1,.13.14.13.13,0,0,1-.09.13Zm-.3-.28c.05,0,.11,0,.14,0a.07.07,0,0,0-.06-.11h-.08Z"/>
    <path d="M2.26,22.07,1.87,23h.82L1.28,26H.42L0,26.87H6.61c1.76,0,2.85-3.11,2.85-3.66a1.14,1.14,0,0,0-.94-1.14ZM6.43,23s.26.11.26.34S5.9,26,5.14,26H3.84l1.43-3Z" style="stroke: #000;stroke-width: 0.037177790299944px;fill-rule: evenodd"/>
    <path d="M10.43,22.07h4.33l-.35.88h-.85s-.73,1.71-1,2.42c0,.11-.08.66.84.66a1.44,1.44,0,0,0,1.3-.72L15.71,23h-.8l.41-.88h2.84l-.4.88h-.85a16.41,16.41,0,0,1-1.35,2.94c-.44.59-.89,1.05-3.38,1.05-1.5,0-2.46,0-2.46-1.1l0-.23L10.87,23H10Z" style="stroke: #000;stroke-width: 0.037177790299944px;fill-rule: evenodd"/>
    <path d="M16.54,26.87l.4-.88h1l1.31-3h-.87l.37-.88H21.8L23.33,25l.89-2h-.8l.37-.88h2.93l-.33.88h-.88l-1.76,3.93H21.68l-1.6-2.95L19.14,26H20l-.39.88Z" style="stroke: #000;stroke-width: 0.037177790299944px;fill-rule: evenodd"/>
    <path d="M25.15,26.86l.42-.87h.89l1.35-3H27l.35-.88h4.45l-.39.88h-.85l-1.34,3h1.43L31.9,24.6h.86l-1,2.27Z" style="stroke: #000;stroke-width: 0.037177790299944px;fill-rule: evenodd"/>
    <path d="M37.93,22c-2.45,0-3.07.19-3.78,1a13,13,0,0,0-1.24,2.66c0,1.16.5,1.29,3.26,1.29,1.78,0,3,.08,3.83-1.18A7,7,0,0,0,41.24,23C41.24,22.06,39.71,22,37.93,22Zm-.29.79c1.3,0,.88.9.88.9l-.72,1.51s-.25.81-1.58.81-.64-1-.64-1l.69-1.5A1.4,1.4,0,0,1,37.64,22.78Z" style="stroke: #000;stroke-width: 0.037177790299944px;fill-rule: evenodd"/>
    <path d="M48.32,22.07H42.16l-.28.88h.89l-1.35,3h-.91l-.38.89H44.5l.41-.89H44.1l.43-1.05h2.75a2.22,2.22,0,0,0,2.21-2.21C49.59,22,48.32,22.07,48.32,22.07ZM46.44,23a.29.29,0,0,1,.32.31c0,.31-.35.79-.64.79H45l.48-1.1Z" style="stroke: #000;stroke-width: 0.037177790299944px;fill-rule: evenodd"/>
  </g>
</svg>
