<svg id="e6ca9e65-4068-4385-ad33-4e1b886ce09d" data-name="Calque 1" xmlns="http://www.w3.org/2000/svg" viewBox="0 0 141.73 30.12"><title>179</title><path d="M141.73,30.12H0V0H141.73V30.12Z" style="fill:#28539c"/><path d="M113,21,116,9.89h8.58a3.29,3.29,0,0,1,2.94,3.23,4.47,4.47,0,0,1-2.59,4l.8,4h-5.24l-.8-3.29h-.58l-1,3.29L113,21Zm7.6-9.62L119.48,16l1.39.11a1.14,1.14,0,0,0,.8-.74c.23-.64.75-3.28.75-3.28s.06-.69-.58-.69ZM18.93,15.61H23.7l-1.53,5.73h-8a4.17,4.17,0,0,1-2.89-5.28c1-3.85,3.08-5.18,6.42-5.85a8.28,8.28,0,0,1,4.37.74l-.74,1.48a4.49,4.49,0,0,0-2.16-.74,1.64,1.64,0,0,0-1.7,1.14c-.17.51-1.71,6.3-1.71,6.3s-.28,1.42,1.76.85l1.42-4.37ZM32.62,9.93s5.39.28,5.11,4.37-2.84,7.27-6.82,7.27-5.39-1.53-5.39-5S29,9.93,32.62,9.93Zm0,1.76c-1,0-1.19.68-1.19.68S30,18.16,29.78,18.85s-.17,1.36.68,1.36S31.66,19,31.66,19l1.58-6.19c.06-.23.4-1.08-.62-1.08Zm14-1.76s5.39.28,5.11,4.37S48.92,21.57,45,21.57s-5.4-1.53-5.4-5S43,9.93,46.65,9.93Zm0,1.76c-1,0-1.2.68-1.2.68S44,18.16,43.81,18.85s-.18,1.36.68,1.36S45.68,19,45.68,19l1.59-6.19c0-.23.4-1.08-.62-1.08Zm5.68,9.65,2.78-11.18,7.6.05s3,.29,3,4.21-3.29,6.76-5.22,6.81-8.12.11-8.12.11Zm7-9.48-1.93,7.9h1.3c.29,0,.63.16,1-1s1.48-5.85,1.48-5.85.28-1.14-.52-1.14a12.3,12.3,0,0,0-1.3.06Zm19.76-1.59L81,16.35,79.7,21.29h5.11l1.48-4.89,5-6.13H89.07s-3.29,4.15-3.46,3.63-1.31-3.74-1.31-3.74l-5.17.11Zm13.4,0h9.09l-.4,1.71-4.09,0-.68,2.56h2.61l-.39,1.93H96.06l-.8,2.9h3.92l-.4,1.76H89.69l2.84-10.91Zm18.69-.11.91,11h-4.89l-.17-1.76h-4l-1.25,1.64h-2l6.76-10.9Zm-7.1,7.6,2.84-.05s-.46-3.58-.46-3.74l-2.38,3.79Zm-27.4-2.34s-3.23,2.46-4.47,3.26l-2-4L73,13.21s.92,2,1.44,1.93S75.67,14,75.67,14l1,1.41Zm.4.65a59,59,0,0,0-5.33,4.14c-1.31,1.32-3.88,4.14-6,4.6l.14.54a8.51,8.51,0,0,0,3.74-2.27c2-1.93,2.63-2.67,4-3.8s3.75-2.8,3.75-2.8l-.32-.4Zm-5.46,3.27-2.11-4.06a32.46,32.46,0,0,0-1.9,4.6,3.23,3.23,0,0,1-1.32,2.2c-.53.6-1.25,1.26-1.18,1.53s-.2.53.13.6a3.27,3.27,0,0,0,2.1-.73,31,31,0,0,0,4.28-4.14Z" style="fill:#fadf3c"/><path d="M72.25,18.68l-2-4L73,13.21s.79,1.6,1.31,1.73,1.12-.46,1.32-.93l1,1.41S73,18.08,72.25,18.68Zm-2.31-4.94a2.19,2.19,0,0,0,.27-1.26l2.1.13Zm1.45-2.07,1.65.21L73,10.75Zm1.38-2-3.22,1.8-.85-1.8,4.14-2.27A4,4,0,0,0,72.77,9.68Z" style="fill:#fadf3c"/><path d="M81.06,7.34c-.07.34.79.73.79.73a2.54,2.54,0,0,1-1.71.54c-.2.33.59.54.59.54a2.9,2.9,0,0,1-2.63.06c.33,1-.33,2.33-.59,2.07s-.53-.8-.53-.14a2.1,2.1,0,0,1-.46,1.21s-.45-1.27-.72-.47-.88,2.16-1,2c-1.06-.94-.33-3.67-.33-3.67a3.46,3.46,0,0,1-.72-1.34,2.9,2.9,0,0,1,.65-2.12c1.19-1.27,2-1,2.77-1.21s1,0,6.18.14,5.33-.6,5.33-.6c-1.12,4-7.5,1.93-7.57,2.26Zm-3.88-.66a.85.85,0,0,1-.72,0,2.29,2.29,0,0,0-.47.47.89.89,0,0,1-.65.33s.07.2.59.26a1.36,1.36,0,0,0,1-.39,1,1,0,0,0,.65-.14c.4-.2.42-.34.42-.34.77.17,1.17-.59.83-.53a3.75,3.75,0,0,1-1.11-.13A2,2,0,0,1,77.18,6.68ZM74.85,9.49c.13.14.11.2.16.41s.45.18.45.18L75.22,9a3.62,3.62,0,0,0-.77-.17c-.28.34.26.51.4.65Z" style="fill:#fadf3c"/></svg>