<svg id="Calque_1" data-name="Calque 1" xmlns="http://www.w3.org/2000/svg" viewBox="0 0 400 128.01"><defs><style>.cls-1{fill:none;}.cls-2{fill:#575757;}.cls-3{fill:#c1c1c1;}.cls-4{fill:#989899;}.cls-5{fill:#4a4949;}.cls-6{fill:#f4f6f8;}.cls-7{fill:#d1d1d1;}.cls-8{fill:#fff;}</style></defs><title>Plan de travail 3</title><path class="cls-1" d="M228.35,93.37h0A121.32,121.32,0,0,1,287.59,128h0A121.45,121.45,0,0,0,228.35,93.37Z"/><path class="cls-1" d="M227.23,93.21h-.15l.29,0Z"/><path class="cls-1" d="M171.64,93.38a7.89,7.89,0,0,1,1.2-.18,7.22,7.22,0,0,0-1.21.18A121.55,121.55,0,0,0,112.38,128h0A121.54,121.54,0,0,1,171.64,93.38Z"/><path class="cls-2" d="M200,10.67A200,200,0,0,0,17.87,128h0a200,200,0,0,1,364.18,0h.08A200,200,0,0,0,200,10.67Z"/><path class="cls-3" d="M315.43,120q-3.27-4.16-6.82-8.07-2.37-2.61-4.86-5.1a149.09,149.09,0,0,0-13.17-11.68Q287.81,93,284.93,91a145.35,145.35,0,0,0-15-9.36q-4.68-2.55-9.56-4.75-6.49-2.94-13.32-5.26c-1.14-.38-2.28-.75-3.43-1.11a147.46,147.46,0,0,0-90.71,1.12c-1.13.38-2.26.78-3.39,1.19a146.94,146.94,0,0,0-40.14,22.39q-5.55,4.36-10.65,9.23-3.83,3.64-7.37,7.55-4.74,5.22-9,10.87c-.71.94-1.4,1.89-2.08,2.85-.55.77-1.08,1.54-1.61,2.32h5.23a142.3,142.3,0,0,1,232.14,0h5.19c-.53-.78-1.06-1.55-1.6-2.32Q317.61,122.81,315.43,120Z"/><path class="cls-4" d="M200,10.67A200,200,0,0,1,382.13,128h1.47c-.1-.22-.19-.43-.29-.64l4.13-2.39a5.46,5.46,0,0,0,2-7.47h0L375.36,93.12a5.49,5.49,0,0,0-7.48-2l-4.18,2.42c-.58-.81-1.13-1.63-1.72-2.44l3.56-3.2a5.47,5.47,0,0,0,.4-7.72h0l-18.84-21a5.47,5.47,0,0,0-7.73-.41l-3.57,3.23c-.73-.68-1.48-1.32-2.23-2l2.84-3.91a5.49,5.49,0,0,0-1.21-7.65L312.41,32a5.49,5.49,0,0,0-7.65,1.21L302,37.05c-.86-.51-1.73-1-2.59-1.5l1.95-4.38A5.48,5.48,0,0,0,298.53,24h0L272.8,12.49a5.47,5.47,0,0,0-7.21,2.76h0l-1.93,4.33c-.94-.31-1.88-.65-2.84-.95l1-4.62a5.45,5.45,0,0,0-4.21-6.48h0L230,1.68a5.46,5.46,0,0,0-6.49,4.21h0l-1,4.63-3-.33V5.48A5.46,5.46,0,0,0,214.08,0H185.91a5.47,5.47,0,0,0-5.47,5.47V10.2c-1,.1-2,.2-3,.33l-1-4.64A5.48,5.48,0,0,0,170,1.68L142.42,7.54a5.47,5.47,0,0,0-4.2,6.49l1,4.61c-1,.3-1.89.64-2.84.95l-1.93-4.32a5.49,5.49,0,0,0-7.23-2.78L101.46,24a5.47,5.47,0,0,0-2.77,7.22l2,4.38c-.87.49-1.73,1-2.59,1.49l-2.82-3.87A5.48,5.48,0,0,0,87.59,32L64.8,48.52a5.47,5.47,0,0,0-1.21,7.63h0l2.83,3.91c-.74.66-1.5,1.3-2.23,2l-3.58-3.23a5.46,5.46,0,0,0-7.72.41L34.05,80.17a5.47,5.47,0,0,0,.4,7.72h0L38,91.1c-.59.8-1.14,1.63-1.72,2.43l-4.18-2.42a5.49,5.49,0,0,0-7.48,2l-14.08,24.4a5.47,5.47,0,0,0,2,7.47h0l4.14,2.39-.29.63h1.47A200,200,0,0,1,200,10.67Z"/><path class="cls-5" d="M80.31,125.69c.68-1,1.37-1.91,2.08-2.85q4.22-5.64,9-10.87,3.54-3.9,7.37-7.55,5.1-4.86,10.65-9.23A146.94,146.94,0,0,1,149.52,72.8c1.13-.41,2.26-.81,3.39-1.19a147.46,147.46,0,0,1,90.71-1.12c1.15.36,2.29.73,3.43,1.11q6.81,2.31,13.32,5.26,4.88,2.2,9.56,4.75a145.35,145.35,0,0,1,15,9.36q2.88,2,5.65,4.22a149.09,149.09,0,0,1,13.17,11.68q2.49,2.49,4.86,5.1,3.56,3.91,6.82,8.07,2.18,2.77,4.23,5.65c.54.77,1.07,1.54,1.6,2.32h60.79a200,200,0,0,0-364.18,0H78.7C79.23,127.23,79.76,126.46,80.31,125.69Z"/><path class="cls-6" d="M171.63,93.38a7.22,7.22,0,0,1,1.21-.18h.8c.13,0,.26,0,.38,0l.31,0,.25,0a3.29,3.29,0,0,1,.43.09l.07,0a6.88,6.88,0,0,1,5.07,6.26L182.24,128h35.5l2.11-28.32a7,7,0,0,1,.15-1s0-.07,0-.1a.45.45,0,0,1,0-.11,2.77,2.77,0,0,1,.12-.41,2.58,2.58,0,0,1,.08-.26c.05-.13.1-.26.16-.39a2.72,2.72,0,0,1,.11-.25,2.91,2.91,0,0,1,.18-.35c.05-.08.09-.17.14-.26l.2-.3a2.48,2.48,0,0,1,.19-.26c.06-.09.14-.18.21-.27l.21-.25.25-.25.22-.21a3.61,3.61,0,0,1,.3-.25,1.2,1.2,0,0,1,.21-.17l.34-.24.2-.13.39-.22.19-.09.42-.19.19-.08.43-.14.22-.06a3.15,3.15,0,0,1,.42-.09l.26,0a2.65,2.65,0,0,1,.38-.05l.31,0h.85l.14,0a7.59,7.59,0,0,1,.92.14h.06A121.45,121.45,0,0,1,287.6,128h28.47a142.3,142.3,0,0,0-232.14,0h28.45A121.55,121.55,0,0,1,171.63,93.38Z"/><path class="cls-7" d="M224.05,108.05a104.88,104.88,0,0,1,41,20h22.56a121.32,121.32,0,0,0-59.24-34.63h-.06a7.59,7.59,0,0,0-.92-.14l-.29,0h-.7l-.31,0a2.65,2.65,0,0,0-.38.05l-.26,0a3.15,3.15,0,0,0-.42.09l-.22.06-.43.14-.19.08-.42.19-.19.09-.39.22-.2.13-.34.24a1.2,1.2,0,0,0-.21.17,3.61,3.61,0,0,0-.3.25l-.22.21-.25.25-.21.25c-.07.09-.15.18-.21.27a2.48,2.48,0,0,0-.19.26l-.2.3c-.05.09-.09.18-.14.26a2.91,2.91,0,0,0-.18.35,2.72,2.72,0,0,0-.11.25c-.06.13-.11.26-.16.39a2.58,2.58,0,0,0-.08.26,2.77,2.77,0,0,0-.12.41.45.45,0,0,0,0,.11s0,.07,0,.1a7,7,0,0,0-.15,1L217.74,128h4.82Z"/><path class="cls-7" d="M175.08,93.43l-.07,0a3.29,3.29,0,0,0-.43-.09l-.25,0-.31,0c-.12,0-.25,0-.38,0h-.8a7.89,7.89,0,0,0-1.2.18A121.54,121.54,0,0,0,112.38,128H135a104.88,104.88,0,0,1,41-20l1.48,20h4.81l-2.09-28.32A6.88,6.88,0,0,0,175.08,93.43Z"/><path class="cls-8" d="M94,81.92l2.67-8.67c.85-2.85.72-4.31-.06-5.43a2.69,2.69,0,0,0-3.9-.41c-1.55,1.09-2.18,2.71-2.41,4.84l-3.67-.57a9.23,9.23,0,0,1,4-7.45c3.39-2.38,7.31-2,9.41,1,1.5,2.13,1.73,4.43.37,8.4L99.1,77.9l6.75-4.74L108,76.24,96,84.7Z"/><path class="cls-8" d="M108.34,72.89l.7-3.78a7.5,7.5,0,0,0,5.57-.5c1.9-1.07,2.45-2.88,1.63-4.33s-2.61-1.79-4.46-.75a6.12,6.12,0,0,0-2.65,3l-3,.38-4.91-9.29,11.23-6.34,1.85,3.29L106.42,59l2,3.81a6.5,6.5,0,0,1,2.73-2.91c3-1.69,6.69-1.23,8.64,2.23s.63,7.41-3.42,9.7A10.26,10.26,0,0,1,108.34,72.89Z"/><path class="cls-8" d="M123.45,64.48l1.07-3.69a7.53,7.53,0,0,0,5.6.05c2-.88,2.72-2.62,2-4.15s-2.41-2-4.36-1.18a6.08,6.08,0,0,0-2.94,2.68l-3,.09-4-9.74,11.81-5.18,1.52,3.45-8.28,3.63,1.62,4a6.42,6.42,0,0,1,3-2.61c3.17-1.39,6.78-.56,8.37,3.07,1.67,3.79-.1,7.44-4.36,9.31A10.28,10.28,0,0,1,123.45,64.48Z"/><path class="cls-8" d="M149.44,35.18l4.2-1.2-3,25-4.2,1.21Z"/><path class="cls-8" d="M166.82,49.87l2-3.27a7.56,7.56,0,0,0,5.39,1.52c2.16-.32,3.31-1.81,3.07-3.46s-1.79-2.6-3.89-2.29a6.07,6.07,0,0,0-3.55,1.81l-2.94-.71L165.64,33l12.76-1.88.55,3.73L170,36.19l.52,4.28a6.43,6.43,0,0,1,3.58-1.73c3.42-.51,6.69,1.24,7.27,5.17.61,4.09-2.07,7.15-6.66,7.83A10.25,10.25,0,0,1,166.82,49.87Z"/><path class="cls-8" d="M184,47.43l2.33-3.06a7.51,7.51,0,0,0,5.2,2.06c2.19-.1,3.48-1.47,3.41-3.14s-1.53-2.77-3.65-2.67a6.14,6.14,0,0,0-3.71,1.45l-2.85-1-.21-10.52,12.88-.6.18,3.76-9,.43.08,4.31a6.42,6.42,0,0,1,3.74-1.37c3.46-.16,6.54,1.91,6.72,5.87.2,4.14-2.77,6.92-7.41,7.13A10.25,10.25,0,0,1,184,47.43Z"/><path class="cls-8" d="M221.37,50.79l-3.79-6.74-3.07-.31L213.87,50l-4.15-.42,2-19.37,8.72.88c4.2.43,7,3.45,6.64,7.28A6.34,6.34,0,0,1,222,44l4.08,7.25Zm-6.48-10.85,4.12.41c2.06.21,3.57-.72,3.74-2.38s-1.13-2.88-3.19-3.09l-4.12-.41Z"/><path class="cls-8" d="M234.52,38l-3.65,1.41-1.09-3.21,6.48-2.75,3.28.63-3.66,19.13-4.12-.79Z"/><path class="cls-8" d="M255.75,51.88c-1.09,3.85-4.92,5.62-9,4.47-5.48-1.55-6.86-6.18-5.32-11.64,1.65-5.84,6.24-9.05,11.43-7.58A9.26,9.26,0,0,1,258,40.77l-2.77,2.52a5.85,5.85,0,0,0-3.39-2.61c-2.43-.68-4.66.86-5.91,3.93a7,7,0,0,1,5.14-.46C254.56,45.13,256.8,48.17,255.75,51.88Zm-4.2-1c.51-1.8-.72-3.29-2.55-3.81a3.64,3.64,0,0,0-4,1.23c-.29,2.4.35,4,2.45,4.56A3.15,3.15,0,0,0,251.55,50.9Z"/><path class="cls-8" d="M281.64,58.72c-2.5,5.53-7.52,8-12.43,5.79a9.24,9.24,0,0,1-4.58-4.38l3.12-2.07a5.79,5.79,0,0,0,3,3.08c2.3,1,4.74-.15,6.43-3a7.05,7.05,0,0,1-5.15-.31c-3.28-1.49-5-4.84-3.44-8.35s5.7-4.82,9.58-3.07C283.32,48.78,284,53.56,281.64,58.72Zm-3-4.11c.64-2.32.24-4-1.75-4.86a3.13,3.13,0,0,0-4.31,1.34c-.77,1.7.21,3.37,1.94,4.15A3.64,3.64,0,0,0,278.62,54.61Z"/><path class="cls-8" d="M280.27,66l3.53-1.16a6.94,6.94,0,0,0,3.31,4.58c1.86,1.08,3.43.85,4.13-.35s.14-2.54-2.15-3.84l-1.94-1.13,1.79-3.09,1.93,1.15c1.83,1.07,3.34,1,4-.17s0-2.68-1.64-3.65a6.26,6.26,0,0,0-5.11-.35l-.81-3.42a9.15,9.15,0,0,1,8.14.73c3.8,2.21,5,5.53,3.5,8.2a4.69,4.69,0,0,1-5.42,2c1.6,1.48,2.53,3.76,1.24,6-1.7,2.92-5.5,3.53-9.42,1.25A10.11,10.11,0,0,1,280.27,66Z"/><path class="cls-8" d="M327.55,78.85,309.12,89,305.49,86l6.1-20.13,3.65,3L310.94,83l13-7.14Z"/></svg>